# xmcd
#
# Track frame offsets:
#	150
#	14485
#	25067
#	33772
#	43727
#	54790
#	65735
#	77107
#	88970
#	100435
#	112272
#	124437
#	133510
#	146230
#	155490
#	164277
#	172747
#	182137
#	191095
#	204642
#	214175
#	224672
#	234887
#	245995
#	257082
#	266977
#	277285
#	287842
#	298845
#	309627
#
# Disc length: 4237 seconds
#
# Revision: 1
# Processed by: cddbd v1.5.2PL0 Copyright (c) Steve Scherf et al.
# Submitted via: audiograbber 1.83.01
#
DISCID=e7108b1e
DTITLE=Various Artist - The Best Of Flip Records
DYEAR=1900
DGENRE=
TTITLE0=Donald Woods and The Vel-Aires - Death Of An Angel
TTITLE1=The Six Teens - Teenage Promise
TTITLE2=The King Bees - Puppy Love
TTITLE3=Richard Berrz and The Dreamers - Besame Mucho
TTITLE4=The Flippers - My Aching Heart
TTITLE5=The Six Teens - Stop Playing Ping Pong With My Heart
TTITLE6=The Cyclones - My Dear
TTITLE7=Richard Berry and The Dreamers - You Are My Sunshine
TTITLE8=The Sweet Teens - Forever More
TTITLE9=The Bel-Aires - White Port and Lemon Juice
TTITLE10=The Six Teens - My Secret
TTITLE11=Jenell Hawkins A& The Dreamers - Since You've Been Gone
TTITLE12=The Falcones - Stay Mine
TTITLE13=The Six Teens - Arrow Of Love
TTITLE14=Richard Berry and The Pharaoahs - Take The Key
TTITLE15=The Cyclones - Do You Love Me
TTITLE16=The Ivy Leaguers - Deposit Your Love In The Bank Of My Heart
TTITLE17=The Six Teens - My Special Guy
TTITLE18=Donald Woods and The Vel-Aires - Man Fom Utopia
TTITLE19=Richard Berry and The Pharaoahs - Somewhere There's A Rainbow
TTITLE20=The Elgense - Casey Cop
TTITLE21=Jimmy Smith and The Lockettes - I Cry and Cry Every Night
TTITLE22=The Six Teens - So Happy
TTITLE23=Trudy Williams and The Pharoahs - You're My Boyfriend
TTITLE24=The Emotions - First Love Baby
TTITLE25=Richard Berry and The Pharoahs - You Look So Good
TTITLE26=The Six Teens - A Little Prayer
TTITLE27=The Ru-Bee-Els - Evil
TTITLE28=The Dukes - I Love You
TTITLE29=The Six Teens - Love's A-Funny That Way
EXTD=
EXTT0=
EXTT1=
EXTT2=
EXTT3=
EXTT4=
EXTT5=
EXTT6=
EXTT7=
EXTT8=
EXTT9=
EXTT10=
EXTT11=
EXTT12=
EXTT13=
EXTT14=
EXTT15=
EXTT16=
EXTT17=
EXTT18=
EXTT19=
EXTT20=
EXTT21=
EXTT22=
EXTT23=
EXTT24=
EXTT25=
EXTT26=
EXTT27=
EXTT28=
EXTT29=
PLAYORDER=
